<?xml version="1.0" encoding="UTF-8"?>
<svg width="512px" height="512px" viewBox="0 0 512 512" version="1.1" xmlns="http://www.w3.org/2000/svg" xmlns:xlink="http://www.w3.org/1999/xlink">
    <!-- Generator: Sketch 52.4 (67378) - http://www.bohemiancoding.com/sketch -->
    <title>Group</title>
    <desc>Created with Sketch.</desc>
    <defs>
        <linearGradient x1="0%" y1="0%" x2="100%" y2="100%" id="linearGradient-1">
            <stop stop-color="#05B5FD" offset="0%"></stop>
            <stop stop-color="#3298F3" offset="77.4689472%"></stop>
            <stop stop-color="#027EF9" offset="100%"></stop>
        </linearGradient>
    </defs>
    <g id="Page-2" stroke="none" stroke-width="1" fill="none" fill-rule="evenodd">
        <g id="e" transform="translate(-548.000000, -430.000000)">
            <g id="Group" transform="translate(548.000000, 430.000000)">
                <rect id="Rectangle-2" stroke="#979797" fill="url(#linearGradient-1)" x="0.5" y="0.5" width="511" height="511"></rect>
                <g id="charity" transform="translate(48.000000, 99.000000)" fill="#FFFDFD">
                    <path d="M327.781317,262.82715 L199.324799,246.389562 L148.987746,199.883315 C148.986267,199.881949 148.984789,199.879218 148.981833,199.876487 C147.118046,198.150239 147.116568,195.345088 148.967053,193.631132 C150.184945,192.507159 151.60976,192.339178 152.350249,192.339178 C153.086305,192.339178 154.502252,192.505794 155.706841,193.621572 C155.709797,193.624303 155.712753,193.625669 155.715709,193.6284 L155.715709,193.629766 L193.773342,228.793859 C193.77482,228.795224 193.776298,228.795224 193.777776,228.797956 C193.779254,228.799321 193.780732,228.800687 193.78221,228.802053 C193.890106,228.903115 194.011304,228.986423 194.122155,229.086119 C194.287694,229.226786 194.451755,229.372916 194.623205,229.502658 C200.210135,234.273055 207.325341,236.687616 214.46124,236.687616 C221.95482,236.687616 229.45579,234.054542 235.168352,228.788396 C246.566871,218.236983 246.563914,201.078304 235.160962,190.540548 L130.6839,94.0004471 C128.604321,92.0789045 125.785729,91 122.844462,91 L11.0851778,91 C4.96172558,91 0,95.586027 0,101.242764 C0,106.899501 4.96172558,111.485528 11.0851778,111.485528 L118.253721,111.485528 L219.482086,205.021086 C222.248947,207.579045 222.24599,211.747168 219.490954,214.296933 C216.722616,216.850796 212.21021,216.850796 209.441871,214.296933 C209.437437,214.292836 209.431525,214.288739 209.427091,214.284642 L171.406409,179.156057 C171.404931,179.154692 171.403453,179.15196 171.400497,179.149229 C171.397541,179.146498 171.394585,179.145132 171.391629,179.1424 L171.391629,179.141035 C171.387195,179.136938 171.381283,179.132841 171.376849,179.128743 C166.298359,174.436192 159.540835,171.852284 152.350249,171.852284 C145.153752,171.852284 138.38736,174.440289 133.2867,179.147863 C123.076512,188.599886 122.842984,203.817902 132.529952,213.57038 C132.594985,213.644127 132.671842,213.711047 132.738353,213.782063 C132.926062,213.966433 133.090123,214.161729 133.283744,214.342001 C133.2867,214.344733 133.289656,214.347464 133.29409,214.350195 L133.295568,214.351561 L186.28124,263.306511 C187.988357,264.883897 190.205393,265.902711 192.598313,266.209994 L324.641995,283.105092 C327.129509,283.445151 331.831102,284.9802 331.831102,288.372604 C331.834058,290.22313 330.814222,291.441336 330.206754,292.004005 C329.59633,292.56804 328.272021,293.514472 326.260431,293.514472 L178.580736,293.514472 L61.043857,184.896103 C58.9657557,182.975926 56.1456865,181.895655 53.2044193,181.895655 L11.0851778,181.895655 C4.96172558,181.895655 0,186.481682 0,192.13842 C0,197.795157 4.96172558,202.381184 11.0851778,202.381184 L48.6136777,202.381184 L166.150557,310.999553 C168.228658,312.91973 171.048727,314 173.989995,314 L326.260431,314 C333.678632,314 340.648991,311.330053 345.891542,306.481811 C351.12818,301.637666 354.008848,295.198382 353.99998,288.361678 C354.001458,275.433944 343.259181,264.938525 327.781317,262.82715 Z" id="Path"></path>
                    <path d="M348.335951,0 C331.511896,0 314.888742,5.76217149 301.994091,15.7693651 C289.100917,5.76080959 272.482196,0 255.664049,0 C217.721661,0 188,27.4012976 188,62.3828946 C188,103.919285 226.567252,135.426692 279.990903,178.98277 L294.172213,192.018815 C296.334862,194.00718 299.165215,195 301.995568,195 C304.824444,195 307.65332,194.00718 309.814492,192.022901 L324.012051,178.984132 C377.43127,135.430777 416,103.920647 416,62.3828946 C416,27.4012976 386.276862,0 348.335951,0 Z M309.084746,163.882095 C308.920774,164.015561 308.759757,164.154474 308.606127,164.297472 L301.998523,170.364708 L295.40126,164.300196 C295.244674,164.155836 295.083657,164.015561 294.918209,163.880733 C240.785492,119.74585 210.158296,93.2706397 210.158296,62.3815327 C210.158296,38.4639587 229.721116,20.4270409 255.664049,20.4270409 C269.799565,20.4270409 284.311771,26.6754084 293.534054,36.732992 C295.639092,39.0277826 298.735344,40.352905 301.995568,40.352905 C305.255792,40.352905 308.352045,39.0291445 310.457083,36.732992 C319.680843,26.6754084 334.196004,20.4270409 348.338905,20.4270409 C374.281838,20.4270409 393.844659,38.4639587 393.844659,62.3815327 C393.841704,93.2747254 363.214508,119.748574 309.084746,163.882095 Z" id="Shape" fill-rule="nonzero"></path>
                </g>
            </g>
        </g>
    </g>
</svg>